<?xml version="1.0" encoding="UTF-8"?>
<svg xmlns="http://www.w3.org/2000/svg" xmlns:xlink="http://www.w3.org/1999/xlink" width="24" height="24">
    <symbol id="chevron-right" aria-hidden="true" role="img"  viewBox="0 0 24 24"><path fill="none" stroke="currentColor" stroke-linecap="round" stroke-linejoin="round" stroke-width="1.5" d="m9 6l6 6l-6 6"></path></symbol>
    <symbol id="dashboard" aria-hidden="true" role="img"  viewBox="0 0 24 24"><g fill="none" stroke="currentColor" stroke-linecap="round" stroke-linejoin="round" stroke-width="1.5"><path d="m19 8.71l-5.333-4.148a2.666 2.666 0 0 0-3.274 0L5.059 8.71a2.665 2.665 0 0 0-1.029 2.105v7.2a2 2 0 0 0 2 2h12a2 2 0 0 0 2-2v-7.2c0-.823-.38-1.6-1.03-2.105"></path><path d="M16 15c-2.21 1.333-5.792 1.333-8 0"></path></g></symbol>
    <symbol id="sidebar-sub" aria-hidden="true" role="img"  viewBox="0 0 24 24"><circle cx="12" cy="12" r="9" fill="none" stroke="currentColor" stroke-linecap="round" stroke-linejoin="round" stroke-width="1.5"></circle></symbol>
    <symbol id="x-mark" viewBox="0 0 24 24"><path fill="none" stroke="currentColor" stroke-linecap="round" stroke-linejoin="round" stroke-width="1.5" d="M18 6L6 18M6 6l12 12"></path></symbol>
    <symbol id="hamburger" aria-hidden="true" role="img"  viewBox="0 0 24 24"><path fill="none" stroke="currentColor" stroke-linecap="round" stroke-linejoin="round" stroke-width="1.5" d="M4 6h16M4 12h16M4 18h16"></path></symbol>
</svg>
